<?xml version="1.0" standalone="no"?>
<!DOCTYPE svg PUBLIC "-//W3C//DTD SVG 20010904//EN"
 "http://www.w3.org/TR/2001/REC-SVG-20010904/DTD/svg10.dtd">
<svg version="1.0" xmlns="http://www.w3.org/2000/svg"
 width="700.000000pt" height="700.000000pt" viewBox="0 0 700.000000 700.000000"
 preserveAspectRatio="xMidYMid meet">
<metadata>
Created by potrace 1.11, written by Peter Selinger 2001-2013
</metadata>
<g transform="translate(0.000000,700.000000) scale(0.100000,-0.100000)"
fill="#000000" stroke="none">
<path d="M3839 6995 c-2 -2 -31 -6 -64 -9 -55 -5 -123 -16 -200 -31 -232 -47
-479 -190 -605 -349 -47 -60 -50 -61 -127 -79 -82 -20 -297 -88 -348 -111 -16
-8 -78 -35 -137 -61 -649 -286 -1172 -841 -1352 -1435 -28 -93 -44 -163 -53
-225 -3 -22 -7 -42 -9 -44 -2 -2 -46 -5 -96 -7 -93 -3 -101 -4 -148 -18 -302
-90 -488 -419 -484 -856 1 -122 12 -199 46 -335 26 -102 94 -288 118 -320 5
-5 20 -32 35 -60 58 -107 206 -279 287 -335 l34 -23 -1 -236 c0 -255 6 -331
36 -486 60 -302 164 -553 338 -820 25 -38 51 -77 58 -85 110 -140 154 -190
238 -276 345 -349 795 -602 1275 -718 261 -63 395 -74 860 -71 223 1 416 5
430 8 14 3 50 8 80 12 30 4 67 9 81 11 38 5 205 43 269 60 660 184 1234 614
1556 1164 71 121 78 135 122 236 82 185 141 388 168 574 3 25 8 59 11 75 3 17
6 144 7 283 l2 253 65 52 c327 262 513 747 465 1209 -4 37 -11 81 -16 98 -5
16 -7 30 -5 30 8 0 -53 167 -80 220 -84 165 -197 272 -350 329 -66 25 -182 35
-246 23 l-46 -9 -18 76 c-66 286 -232 599 -458 866 -75 89 -310 320 -395 389
-172 139 -402 288 -589 379 -166 82 -418 173 -558 202 -17 4 -56 13 -87 21 -5
1 -19 2 -33 3 -14 0 -25 5 -25 9 0 5 21 39 46 78 52 77 168 196 229 235 53 34
148 69 187 69 48 0 30 8 -47 20 -64 11 -458 24 -466 15z"/>
</g>
</svg>
